<svg width="220" height="72" viewBox="0 0 220 72" fill="none" xmlns="http://www.w3.org/2000/svg">
<path d="M218.463 52.3891H2.58774V72H218.463V52.3891Z" fill="#022031"/>
<path d="M45.771 8.76487L42.2533 12.0867C39.7059 9.60534 36.9564 7.76431 33.9239 6.4836C30.8914 5.20289 27.9802 4.56253 25.1094 4.56253C21.5512 4.56253 18.1548 5.44302 14.9201 7.16398C11.6854 8.88493 9.17846 11.2462 7.43981 14.2079C5.66072 17.1695 4.77118 20.3313 4.77118 23.6131C4.77118 27.015 5.70116 30.2168 7.52068 33.2585C9.34019 36.3002 11.8875 38.7015 15.1222 40.4625C18.3569 42.2235 21.9151 43.0639 25.7563 43.0639C30.4466 43.0639 34.4091 41.7432 37.6438 39.1417C40.8785 36.5403 42.7789 33.1384 43.3854 28.9761H28.8697V24.6137H48.4801C48.4396 31.5775 46.3371 37.1006 42.2128 41.1829C38.0886 45.2651 32.5492 47.3063 25.635 47.3063C17.2248 47.3063 10.5532 44.4647 5.66072 38.7815C1.90039 34.4191 0 29.3763 0 23.6131C0 19.3307 1.09171 15.3685 3.2347 11.7265C5.41812 8.04447 8.36979 5.16286 12.1301 3.12173C15.8905 1.04057 20.1764 0 24.9476 0C28.7888 0 32.4279 0.680377 35.8243 2.08116C39.2207 3.52196 42.5363 5.72318 45.771 8.76487Z" fill="white"/>
<path d="M57.3755 1.20067H66.4327C71.4869 1.20067 74.9237 1.40078 76.7028 1.801C79.4119 2.40134 81.5953 3.72206 83.2935 5.72318C84.9917 7.72429 85.8409 10.2057 85.8409 13.1673C85.8409 15.6087 85.2748 17.7699 84.1022 19.6509C82.9296 21.4919 81.2718 22.9327 79.0884 23.8532C76.905 24.8138 73.9533 25.2941 70.1121 25.2941L86.4878 46.1857H80.8675L64.4918 25.3341H61.9041V46.2257H57.3755V1.20067ZM61.9041 5.60311V20.8916L69.7482 20.9716C72.7807 20.9716 75.045 20.6915 76.5007 20.1312C77.9563 19.5709 79.0884 18.6504 79.8971 17.4097C80.7058 16.169 81.1101 14.7682 81.1101 13.2073C81.1101 11.6865 80.7058 10.3257 79.8567 9.08505C79.048 7.84436 77.9563 6.96387 76.622 6.44358C75.2876 5.92329 73.0638 5.64313 69.9504 5.64313H61.9041V5.60311Z" fill="white"/>
<path d="M114.144 1.20067L135.372 46.2257H130.48L123.323 31.4175H103.713L96.6367 46.2257H91.5825L113.012 1.20067H114.144ZM113.538 10.766L105.734 27.055H121.301L113.538 10.766Z" fill="white"/>
<path d="M184.742 9.56531L181.143 12.2868C179.162 9.7254 176.776 7.80433 174.027 6.4836C171.277 5.16286 168.204 4.5225 164.889 4.5225C161.25 4.5225 157.894 5.40299 154.821 7.12395C151.748 8.84491 149.322 11.1662 147.624 14.0878C145.925 17.0094 145.076 20.2512 145.076 23.8933C145.076 29.3763 146.977 33.9789 150.777 37.6209C154.578 41.3029 159.39 43.144 165.172 43.144C171.56 43.144 176.857 40.6626 181.143 35.7398L184.742 38.4213C182.478 41.2629 179.647 43.5042 176.251 45.065C172.854 46.6259 169.054 47.4263 164.889 47.4263C156.923 47.4263 150.656 44.7849 146.047 39.542C142.206 35.0995 140.265 29.7765 140.265 23.493C140.265 16.8894 142.61 11.3663 147.26 6.8438C151.91 2.3613 157.773 0.08004 164.808 0.08004C169.054 0.08004 172.895 0.920506 176.291 2.56142C179.768 4.24235 182.558 6.56364 184.742 9.56531Z" fill="white"/>
<path d="M193.92 1.20067H220V5.60311H198.489V19.731H219.838V24.1334H198.489V41.8232H219.838V46.2257H193.961V1.20067H193.92Z" fill="white"/>
<path d="M24.9881 66.0367C24.6646 66.4369 24.3411 66.7571 23.9368 67.0372C23.5729 67.3174 23.1686 67.5575 22.7642 67.7576C22.3599 67.9577 21.9555 68.0778 21.5108 68.1578C21.066 68.2379 20.6617 68.2779 20.2169 68.2779C19.3678 68.2779 18.5995 68.1178 17.8717 67.8377C17.1439 67.5575 16.497 67.1173 15.9713 66.597C15.4457 66.0767 15.0009 65.4764 14.6775 64.756C14.354 64.0356 14.1923 63.2751 14.1923 62.4747C14.1923 61.6742 14.354 60.9138 14.6775 60.2334C15.0009 59.513 15.4053 58.9127 15.9713 58.3924C16.5374 57.8721 17.1439 57.4719 17.9122 57.1517C18.64 56.8315 19.4486 56.7115 20.2573 56.7115C21.2277 56.7115 22.1173 56.9116 22.8855 57.3118C23.6942 57.712 24.3411 58.2323 24.9072 58.8727L23.4112 60.3535C23.0068 59.7932 22.5216 59.393 21.996 59.1528C21.4703 58.9127 20.9043 58.7926 20.2573 58.7926C19.7317 58.7926 19.206 58.8727 18.7613 59.0728C18.2761 59.2729 17.8717 59.5531 17.5483 59.8732C17.1844 60.1934 16.9013 60.5936 16.6992 61.0739C16.497 61.5142 16.4161 61.9944 16.4161 62.5147C16.4161 63.035 16.497 63.5153 16.6992 63.9555C16.9013 64.3958 17.1844 64.796 17.5483 65.1562C17.9122 65.5164 18.3165 65.7565 18.7613 65.9566C19.2465 66.1567 19.7317 66.2368 20.2573 66.2368C20.783 66.2368 21.2277 66.1567 21.6725 65.9566C22.1173 65.7565 22.5216 65.5164 22.8855 65.2362V64.1556H20.5808V62.3146H24.9881V66.0367Z" fill="white"/>
<path d="M34.2879 68.0778H26.6863V56.9516H28.9102V65.9967H34.2879V68.0778Z" fill="white"/>
<path d="M46.3371 62.5147C46.3371 63.3152 46.1754 64.0756 45.8519 64.756C45.5284 65.4764 45.1241 66.0767 44.558 66.597C44.0324 67.1173 43.3854 67.5175 42.6576 67.8377C41.9298 68.1579 41.1616 68.2779 40.3529 68.2779C39.5442 68.2779 38.776 68.1178 38.0482 67.8377C37.3204 67.5175 36.6734 67.1173 36.1478 66.597C35.6222 66.0767 35.1774 65.4764 34.8539 64.756C34.5304 64.0356 34.3687 63.3152 34.3687 62.4747C34.3687 61.6342 34.5304 60.9138 34.8539 60.1934C35.1774 59.473 35.5817 58.8727 36.1478 58.3524C36.6734 57.8321 37.3204 57.4319 38.0482 57.1117C38.776 56.8316 39.5442 56.6715 40.3529 56.6715C41.1616 56.6715 41.9298 56.8316 42.6576 57.1117C43.3854 57.3919 44.0324 57.8321 44.558 58.3524C45.0837 58.8727 45.5284 59.473 45.8519 60.1934C46.1754 60.9539 46.3371 61.7143 46.3371 62.5147ZM44.1537 62.5147C44.1537 61.9944 44.0728 61.5142 43.8706 61.0739C43.6685 60.6337 43.3854 60.2335 43.062 59.8733C42.7385 59.5131 42.3342 59.2729 41.849 59.0728C41.4042 58.8727 40.8785 58.7927 40.3933 58.7927C39.8677 58.7927 39.3825 58.8727 38.8973 59.0728C38.4525 59.2729 38.0482 59.5531 37.6843 59.8733C37.3204 60.1934 37.0778 60.5937 36.8756 61.0739C36.6734 61.5142 36.5926 61.9944 36.5926 62.5147C36.5926 63.035 36.6734 63.5153 36.8756 63.9555C37.0778 64.3958 37.3608 64.796 37.6843 65.1562C38.0077 65.5164 38.4121 65.7565 38.8973 65.9566C39.3421 66.1567 39.8677 66.2368 40.3933 66.2368C40.919 66.2368 41.4042 66.1167 41.849 65.9566C42.2937 65.7565 42.6981 65.4764 43.062 65.1562C43.4259 64.836 43.6685 64.4358 43.8706 63.9555C44.0728 63.4753 44.1537 62.995 44.1537 62.5147Z" fill="white"/>
<path d="M56.0816 64.876C56.0816 65.3563 56.0007 65.7565 55.7986 66.1567C55.5964 66.557 55.3538 66.8771 55.0303 67.1573C54.7068 67.4374 54.3429 67.6776 53.9386 67.8377C53.5343 67.9978 53.0895 68.0778 52.6043 68.0778H48.0353V56.9116H52.0787C52.5639 56.9116 53.0086 56.9916 53.4534 57.1117C53.8577 57.2718 54.2216 57.4719 54.5451 57.7521C54.8686 58.0322 55.1112 58.3524 55.2729 58.7526C55.4347 59.1528 55.5155 59.5931 55.5155 60.0734C55.5155 60.4736 55.4347 60.9138 55.2325 61.274C55.0303 61.6743 54.7877 61.9944 54.5047 62.2746C54.7473 62.3947 54.9494 62.5547 55.1516 62.7548C55.3538 62.955 55.5155 63.1551 55.6368 63.3552C55.7581 63.5953 55.8794 63.8355 55.9603 64.0756C56.0412 64.3557 56.0816 64.6359 56.0816 64.876ZM53.3725 60.1534C53.3725 59.8732 53.3321 59.6331 53.2108 59.473C53.0895 59.2729 52.9682 59.1128 52.8065 58.9928C52.6447 58.8727 52.4426 58.7526 52.2 58.7126C51.9574 58.6326 51.7552 58.6326 51.5126 58.6326H50.2187V61.7143C50.4613 61.7143 50.6635 61.7143 50.8656 61.7143C51.0678 61.7143 51.27 61.7143 51.5126 61.7143C51.7552 61.7143 51.9978 61.6743 52.2 61.6342C52.4426 61.5942 52.6447 61.4741 52.8065 61.3541C52.9682 61.234 53.1299 61.0739 53.2108 60.8738C53.3321 60.6337 53.3725 60.4336 53.3725 60.1534ZM53.8173 64.756C53.8173 64.5158 53.7769 64.3157 53.696 64.1156C53.6151 63.9155 53.4938 63.7554 53.3321 63.6353C53.1704 63.5153 53.0086 63.3952 52.8065 63.3152C52.6043 63.2351 52.4021 63.1951 52.1595 63.1951C51.836 63.1951 51.5126 63.1951 51.2295 63.1951C50.9465 63.1951 50.623 63.1951 50.2996 63.1951V66.2768H51.9169C52.1595 66.2768 52.4021 66.2368 52.6043 66.1968C52.8469 66.1567 53.0491 66.0367 53.2512 65.9166C53.4534 65.7965 53.5747 65.6365 53.696 65.4363C53.7364 65.2763 53.8173 65.0361 53.8173 64.756Z" fill="white"/>
<path d="M68.98 68.0778H66.5944L65.5431 65.8366H60.0846L59.0333 68.0778H56.6477L61.985 56.9116H63.6832L68.98 68.0778ZM64.694 64.0356L62.8341 60.0333L60.9337 64.0356H64.694Z" fill="white"/>
<path d="M77.7541 68.0778H70.1526V56.9516H72.3764V65.9967H77.7541V68.0778Z" fill="white"/>
<path d="M91.1781 58.8727H88.0647V68.0778H85.8409V58.8727H82.7275V56.9516H91.1781V58.8727Z" fill="white"/>
<path d="M101.044 68.0778H98.6584L97.8497 65.5564C97.7688 65.2762 97.6475 65.0361 97.5262 64.796C97.4049 64.5558 97.2432 64.3557 97.0815 64.1956C96.9197 64.0356 96.6771 63.9155 96.4345 63.7954C96.1919 63.7154 95.9089 63.6754 95.545 63.6754H94.7363V68.1178H92.5933V56.9916H97.041C97.5262 56.9916 97.971 57.0717 98.3753 57.2318C98.7797 57.3919 99.1436 57.632 99.4266 57.9122C99.7097 58.1923 99.9523 58.5525 100.114 58.9127C100.276 59.3129 100.357 59.7132 100.357 60.1934C100.357 60.5136 100.316 60.8338 100.195 61.154C100.074 61.4741 99.9523 61.7543 99.7501 61.9944C99.5479 62.2346 99.3458 62.4747 99.1032 62.6748C98.8606 62.8749 98.5775 63.035 98.254 63.115C98.618 63.2351 98.901 63.4352 99.1032 63.6754C99.3458 63.9155 99.5075 64.2357 99.6288 64.5558C99.7097 64.7159 99.7501 64.876 99.7905 65.0361C99.831 65.1962 99.9118 65.3563 99.9523 65.5164C100.033 65.6765 100.074 65.8766 100.154 66.0767C100.235 66.2768 100.316 66.5169 100.397 66.7571C100.518 67.0772 100.599 67.3174 100.68 67.5575C100.842 67.7176 100.963 67.9177 101.044 68.0778ZM98.2136 60.2735C98.2136 60.0333 98.1732 59.7932 98.0519 59.5531C97.971 59.353 97.8093 59.1528 97.6475 58.9928C97.4858 58.8327 97.2836 58.7126 97.041 58.6326C96.7984 58.5525 96.5558 58.5125 96.3132 58.5125H94.7363V61.9944H96.3132C96.5558 61.9944 96.8389 61.9544 97.041 61.8744C97.2836 61.7943 97.4858 61.6742 97.6475 61.5142C97.8093 61.3541 97.9306 61.194 98.0519 60.9939C98.1732 60.7938 98.2136 60.5536 98.2136 60.2735Z" fill="white"/>
<path d="M104.602 68.0778H102.419V56.9516H104.602V68.0778Z" fill="white"/>
<path d="M116.085 68.0778H113.942L108.848 60.2735V68.0778H106.705V56.9116H109.171L113.942 64.1957V56.9116H116.085V68.0778Z" fill="white"/>
<path d="M120.371 68.0778H118.188V56.9516H120.371V68.0778Z" fill="white"/>
<path d="M130.197 58.8727H127.083V68.0778H124.859V58.8727H121.746V56.9516H130.197V58.8727Z" fill="white"/>
<path d="M141.842 56.9516L137.273 63.5153V68.0778H135.049V63.4753L130.682 56.9116H133.229L136.14 61.5942L139.213 56.9116H141.842V56.9516Z" fill="white"/>
<path d="M157.813 66.0767C157.247 66.7571 156.559 67.2774 155.751 67.6776C154.942 68.0778 154.053 68.2779 153.082 68.2779C152.233 68.2779 151.465 68.1178 150.737 67.8377C150.009 67.5175 149.362 67.1173 148.837 66.597C148.311 66.0767 147.866 65.4764 147.543 64.756C147.219 64.0356 147.057 63.3152 147.057 62.4747C147.057 61.6342 147.219 60.9138 147.543 60.1934C147.866 59.473 148.271 58.8727 148.837 58.3524C149.362 57.8321 150.009 57.4319 150.737 57.1117C151.465 56.8316 152.273 56.6715 153.082 56.6715C154.053 56.6715 154.942 56.8716 155.751 57.2718C156.559 57.672 157.206 58.1923 157.772 58.8327L156.276 60.3535C155.912 59.8733 155.468 59.473 154.942 59.1529C154.376 58.8327 153.769 58.7126 153.123 58.7126C152.597 58.7126 152.112 58.7927 151.627 58.9928C151.141 59.1929 150.737 59.473 150.413 59.7932C150.05 60.1134 149.807 60.5136 149.605 60.9939C149.403 61.4341 149.322 61.9144 149.322 62.4347C149.322 62.955 149.403 63.3952 149.605 63.8755C149.807 64.3157 150.09 64.716 150.413 65.0762C150.777 65.3963 151.182 65.6765 151.627 65.8766C152.071 66.0767 152.597 66.1567 153.123 66.1567C153.81 66.1567 154.416 65.9967 154.982 65.6765C155.549 65.3563 155.953 64.9561 156.317 64.4358L157.813 66.0767Z" fill="white"/>
<path d="M166.385 68.0778H158.945V56.9516H166.385V58.7526H161.088V61.4341H166.304V63.1951H161.088V66.2768H166.385V68.0778Z" fill="white"/>
<path d="M177.423 68.0778H175.28L170.186 60.2735V68.0778H168.043V56.9116H170.509L175.28 64.1957V56.9116H177.423V68.0778Z" fill="white"/>
<path d="M187.289 58.8727H184.176V68.0778H181.952V58.8727H178.838V56.9516H187.289V58.8727Z" fill="white"/>
<path d="M196.104 68.0778H188.664V56.9516H196.104V58.7526H190.807V61.4341H196.023V63.1951H190.807V66.2768H196.104V68.0778Z" fill="white"/>
<path d="M206.293 68.0778H203.907L203.099 65.5564C203.018 65.2762 202.897 65.0361 202.775 64.796C202.654 64.5558 202.492 64.3557 202.33 64.1956C202.169 64.0356 201.926 63.9155 201.683 63.7954C201.441 63.6754 201.158 63.6754 200.794 63.6754H199.985V68.1178H197.842V56.9916H202.29C202.775 56.9916 203.22 57.0717 203.624 57.2318C204.029 57.3919 204.393 57.632 204.676 57.9122C204.959 58.1923 205.201 58.5525 205.363 58.9127C205.525 59.2729 205.606 59.7132 205.606 60.1934C205.606 60.5136 205.565 60.8338 205.444 61.154C205.323 61.4741 205.201 61.7543 204.999 61.9944C204.797 62.2746 204.595 62.4747 204.352 62.6748C204.11 62.8749 203.826 63.035 203.503 63.115C203.867 63.2351 204.15 63.4352 204.352 63.6754C204.595 63.9155 204.756 64.2357 204.878 64.5558C204.959 64.7159 204.999 64.876 205.08 65.0361C205.12 65.1962 205.201 65.3563 205.242 65.5164C205.323 65.6765 205.363 65.8766 205.444 66.0767C205.525 66.2768 205.606 66.5169 205.686 66.7571C205.808 67.0772 205.889 67.3174 205.969 67.5575C206.091 67.7176 206.172 67.9177 206.293 68.0778ZM203.422 60.2735C203.422 60.0333 203.382 59.7932 203.26 59.5531C203.139 59.3129 203.018 59.1528 202.856 58.9928C202.694 58.8327 202.492 58.7126 202.25 58.6326C202.007 58.5525 201.764 58.5125 201.522 58.5125H199.945V61.9944H201.522C201.805 61.9944 202.047 61.9544 202.25 61.8744C202.492 61.7943 202.694 61.6742 202.856 61.5142C203.018 61.3541 203.139 61.194 203.26 60.9939C203.382 60.7938 203.422 60.5536 203.422 60.2735Z" fill="white"/>
<path d="M175.28 20.5714C175.24 20.5714 175.24 20.5714 175.199 20.6114C173.865 21.2118 173.056 22.6126 173.259 24.0934C173.623 26.5748 172.693 28.9361 171.035 30.577C169.66 31.8977 167.8 32.7382 165.738 32.7382H165.253C162.786 34.4591 162.544 37.0606 162.544 37.0606C158.258 37.1807 157.206 33.6587 157.206 33.6587C159.552 33.1784 161.29 31.2974 161.816 30.697C161.856 30.657 161.856 30.617 161.897 30.617C161.937 30.577 161.937 30.537 161.978 30.537C156.681 29.8966 154.497 27.055 153.648 24.5336C152.88 22.2123 153.163 20.1312 153.163 20.1312C154.376 20.8516 155.67 21.1317 156.964 21.1317C159.309 21.1317 161.533 20.3313 163.069 20.3313C165.455 20.3313 167.719 22.2524 167.719 22.2524C168.69 20.1312 169.781 19.4508 170.711 19.3708C171.803 19.2507 172.612 19.891 172.612 19.891C173.865 20.8916 175.28 20.5714 175.28 20.5714Z" fill="#2BA5F7"/>
<path d="M168.043 26.8549C169.053 29.0161 165.657 30.0967 161.856 30.657C161.897 30.617 161.897 30.577 161.937 30.577C161.978 30.537 161.978 30.4969 162.018 30.4969C156.721 29.8566 154.538 27.015 153.689 24.4936C154.821 24.2134 166.021 22.5725 168.043 26.8549Z" fill="#0F8DD3"/>
<path d="M171.479 19.2107C171.479 19.2107 169.013 19.851 169.336 23.333L167.76 22.0523C168.73 19.9711 170.469 19.0106 171.479 19.2107Z" fill="#0F8DD3"/>
<path d="M171.075 30.537C169.7 31.8577 167.84 32.6982 165.778 32.6982H165.293C162.827 34.4191 162.584 37.0206 162.584 37.0206C158.298 37.1406 157.247 33.6187 157.247 33.6187C159.754 33.0984 161.533 31.0573 161.937 30.537L162.827 30.4569C162.827 30.4569 167.032 32.0978 171.075 30.537Z" fill="#0F8DD3"/>
<path d="M166.83 23.6531C166.708 23.6531 166.627 23.6131 166.506 23.5331C165.94 23.0528 164.404 22.0523 163.15 22.0523C162.746 22.0523 162.18 22.1323 161.573 22.2524C161.331 22.2924 161.048 22.1323 161.007 21.8922C160.967 21.652 161.128 21.3719 161.371 21.3319C162.018 21.2118 162.625 21.0917 163.11 21.0917C164.767 21.0917 166.547 22.3324 167.113 22.7727C167.315 22.9327 167.315 23.2529 167.153 23.453C167.113 23.5731 166.951 23.6531 166.83 23.6531Z" fill="white"/>
<path d="M176.493 14.6081C177.059 16.0489 176.332 17.6898 174.876 18.2902C174.755 17.97 174.674 17.6098 174.674 17.2496C174.674 16.129 175.361 15.0484 176.493 14.6081Z" fill="#9AD14B"/>
<path d="M171.358 9.76543C172.571 10.806 172.693 12.567 171.641 13.7677C170.994 13.2073 170.671 12.4069 170.671 11.6465C170.63 10.9661 170.873 10.3257 171.358 9.76543Z" fill="#9AD14B"/>
<path d="M173.097 15.8888C171.884 16.9294 170.105 16.7693 169.053 15.6087C169.579 15.1284 170.266 14.9283 170.913 14.9283C171.722 14.8883 172.531 15.2085 173.097 15.8888Z" fill="#9AD14B"/>
<path d="M176.857 16.9694C177.221 16.169 177.221 15.2485 176.898 14.448C176.817 14.2079 176.534 14.0878 176.291 14.1679C175.442 14.488 174.795 15.1284 174.431 15.9288C174.35 16.0889 174.31 16.249 174.269 16.3691C173.703 15.4486 172.976 14.5681 172.167 13.8077C172.612 13.1673 172.854 12.4469 172.773 11.6465C172.693 10.766 172.288 9.96554 171.641 9.40522C171.439 9.24514 171.156 9.24513 170.954 9.44524C170.226 10.2857 169.983 11.3663 170.226 12.3268C169.7 12.0067 169.175 11.7265 168.609 11.4864C168.366 11.3663 168.083 11.4864 167.962 11.7265C167.84 11.9666 167.962 12.2468 168.204 12.3669C169.417 12.8872 170.509 13.6076 171.439 14.448C171.358 14.448 171.237 14.408 171.116 14.408C170.226 14.328 169.377 14.6081 168.69 15.2084C168.487 15.3685 168.487 15.6887 168.649 15.8888C169.296 16.6492 170.226 17.0495 171.156 17.0495C171.843 17.0495 172.531 16.8494 173.097 16.4091C173.906 17.5698 174.472 18.8505 174.836 20.2512C174.431 20.2512 173.663 20.1712 173.016 19.4908C173.016 19.4908 172.976 19.4908 172.976 19.4508C172.935 19.4108 171.843 18.5303 170.428 18.8505C169.337 19.0906 168.407 19.9711 167.638 21.4119C166.83 20.8116 165.051 19.731 163.191 19.731C162.463 19.731 161.614 19.891 160.724 20.0511C158.581 20.4514 155.913 20.9716 153.608 19.5709C153.487 19.4908 153.284 19.4908 153.163 19.5308C153.001 19.6109 152.92 19.731 152.88 19.891C152.84 20.0511 152.314 23.9733 154.74 27.1351C156.155 28.9761 158.298 30.1768 161.128 30.697C160.401 31.4575 158.945 32.6581 157.206 33.0183C157.085 33.0584 156.964 33.1384 156.883 33.2185C156.802 33.3385 156.802 33.4586 156.843 33.5787C156.843 33.6187 157.126 34.5792 158.015 35.4997C158.783 36.3402 160.158 37.3407 162.422 37.3407C162.503 37.3407 162.544 37.3407 162.625 37.3407C162.867 37.3407 163.069 37.1406 163.069 36.9005C163.069 36.8605 163.312 34.6192 165.455 33.0584H165.778C168.124 33.0584 170.307 32.0578 171.843 30.3368C173.38 28.6159 174.067 26.2946 173.744 24.0133C173.582 22.8927 174.108 21.8121 175.078 21.2518C175.199 22.0122 175.24 22.8127 175.159 23.6531C175.159 23.8933 175.321 24.1334 175.604 24.1734H175.644C175.887 24.1734 176.089 23.9733 176.129 23.7332C176.251 21.9322 175.968 20.1712 175.361 18.5303C176.049 18.2101 176.574 17.6498 176.857 16.9694ZM171.399 10.5258C171.641 10.886 171.803 11.2863 171.843 11.7665C171.884 12.2068 171.763 12.647 171.56 13.0472C171.318 12.687 171.156 12.2868 171.116 11.8066C171.116 11.3663 171.196 10.9261 171.399 10.5258ZM172.854 24.2135C173.137 26.2146 172.531 28.2557 171.196 29.8166C169.862 31.3374 167.881 32.2179 165.819 32.2179H165.334C165.253 32.2179 164.565 32.1779 163.918 31.9377C163.676 31.8577 163.393 31.9778 163.312 32.2179C163.231 32.458 163.352 32.7382 163.595 32.8182C163.797 32.8983 163.999 32.9383 164.161 32.9783C162.827 34.259 162.341 35.7399 162.18 36.4603C159.511 36.3802 158.339 34.6993 157.934 33.8588C160.158 33.2185 161.775 31.4975 162.261 30.8972C162.341 30.8972 162.463 30.8972 162.625 30.8972C163.555 30.8972 165.374 30.7371 166.749 29.7765C166.951 29.6164 166.991 29.3363 166.83 29.1362C166.668 28.9361 166.385 28.896 166.183 29.0561C164.646 30.1768 162.22 30.0167 162.099 29.9767C162.058 29.9767 162.018 29.9767 161.978 29.9767C162.018 29.9366 162.099 29.8966 162.139 29.8166C162.341 29.6165 162.341 29.3363 162.139 29.1362C161.937 28.9361 161.654 28.9361 161.452 29.1362C161.25 29.3363 160.845 29.5764 160.603 29.6965C160.077 29.5764 159.592 29.4163 159.107 29.2563C159.309 29.1762 159.511 29.0561 159.673 28.8961C159.875 28.736 159.915 28.4558 159.754 28.2157C159.592 28.0156 159.309 27.9755 159.066 28.1356C158.622 28.4558 158.056 28.6159 157.813 28.6559C157.328 28.3758 156.883 28.0556 156.479 27.6954C156.923 27.6153 157.409 27.4953 157.853 27.2551C158.096 27.1351 158.177 26.8549 158.056 26.6148C157.934 26.3747 157.651 26.2946 157.409 26.4147C156.721 26.7749 155.993 26.8149 155.629 26.8149C155.589 26.7349 155.508 26.6948 155.468 26.6148C155.185 26.2546 154.942 25.8544 154.74 25.4541C154.983 25.4942 155.225 25.4942 155.468 25.4942C155.993 25.4942 156.519 25.4541 157.045 25.254C157.287 25.174 157.449 24.8938 157.328 24.6537C157.247 24.4136 156.964 24.2535 156.721 24.3735C155.872 24.6537 154.74 24.5336 154.255 24.4536C154.093 23.9733 153.972 23.493 153.891 23.0528C154.497 23.2529 155.387 23.453 156.64 23.453C156.923 23.453 157.126 23.2529 157.126 22.9728C157.126 22.6926 156.923 22.4925 156.64 22.4925C155.104 22.4925 154.133 22.1723 153.77 22.0122C153.729 21.532 153.729 21.0917 153.729 20.7715C156.155 21.9322 158.743 21.4119 160.845 21.0117C161.695 20.8516 162.503 20.6915 163.15 20.6915C165.293 20.6915 167.396 22.4925 167.436 22.4925L168.973 23.7332C169.053 23.8132 169.175 23.8532 169.256 23.8532C169.377 23.8532 169.539 23.8132 169.62 23.6932C169.781 23.493 169.741 23.2129 169.539 23.0128L168.285 22.0122C168.932 20.7315 169.7 19.9711 170.509 19.771C171.399 19.5709 172.126 20.0912 172.248 20.1712C172.733 20.6515 173.259 20.9316 173.744 21.0517C173.097 21.8521 172.693 23.0128 172.854 24.2135ZM169.822 15.6487C170.226 15.4486 170.671 15.3685 171.116 15.3685C171.56 15.4086 172.005 15.5686 172.329 15.8088C171.52 16.249 170.55 16.169 169.822 15.6487ZM175.159 17.6098C175.078 17.1695 175.159 16.7293 175.321 16.3291C175.523 15.9288 175.806 15.5686 176.17 15.3285C176.251 15.7688 176.17 16.209 176.008 16.6092C175.806 17.0094 175.523 17.3696 175.159 17.6098Z" fill="#333333"/>
<path d="M171.197 21.9322C171.464 21.9322 171.682 21.7172 171.682 21.4519C171.682 21.1867 171.464 20.9716 171.197 20.9716C170.929 20.9716 170.711 21.1867 170.711 21.4519C170.711 21.7172 170.929 21.9322 171.197 21.9322Z" fill="#333333"/>
<path d="M159.592 22.7326C159.86 22.7326 160.077 22.5176 160.077 22.2524C160.077 21.9871 159.86 21.7721 159.592 21.7721C159.324 21.7721 159.107 21.9871 159.107 22.2524C159.107 22.5176 159.324 22.7326 159.592 22.7326Z" fill="white"/>
</svg>
