<svg width="24" height="25" viewBox="0 0 24 25" fill="none" xmlns="http://www.w3.org/2000/svg">
<path d="M12.4301 14.6989L11.2934 13.8243C10.9473 13.5402 10.4734 13.1647 10.4734 12.4778C10.4734 11.7879 10.9471 11.3493 11.3578 10.943C12.6816 9.91069 14.0051 8.81204 14.0051 6.49703C14.0051 4.11645 12.4928 2.86408 11.7675 2.26981H13.7222L15.7737 0.993347H9.55858C7.85314 0.993347 5.39516 1.39268 3.59569 2.86408C2.23956 4.02283 1.57805 5.62039 1.57805 7.05902C1.57805 9.50044 3.47081 11.9756 6.81398 11.9756C7.12969 11.9756 7.47499 11.9448 7.82255 11.913C7.66632 12.2893 7.50859 12.6027 7.50859 13.1341C7.50859 14.1039 8.01162 14.6984 8.45497 15.2616C7.0349 15.3585 4.38333 15.5145 2.42839 16.7042C0.566724 17.8007 0 19.3962 0 20.523C0 22.8409 2.20671 25 6.78188 25C12.2074 25 15.0794 22.0271 15.0794 19.0838C15.0799 16.9215 13.8185 15.8574 12.4301 14.6989ZM8.29774 11.0985C5.58349 11.0985 4.35399 7.62374 4.35399 5.52727C4.35399 4.71073 4.51022 3.86787 5.04685 3.20952C5.55314 2.58271 6.43432 2.17594 7.25708 2.17594C9.87354 2.17594 11.2307 5.68198 11.2307 7.93665C11.2307 8.50063 11.1677 9.50019 10.4423 10.2231C9.93497 10.725 9.08589 11.0985 8.29774 11.0985ZM8.32884 23.6883C4.95357 23.6883 2.7772 22.0895 2.7772 19.8658C2.7772 17.6435 4.79534 16.8912 5.48945 16.6427C6.81373 16.2014 8.51766 16.14 8.80203 16.14C9.11749 16.14 9.27522 16.14 9.52648 16.1713C11.9258 17.8625 12.9672 18.7051 12.9672 20.3062C12.9674 22.2444 11.3581 23.6883 8.32884 23.6883Z" fill="white"/>
<path d="M20.3965 11.0508V7.92047H18.8358V11.0508H15.6797V12.6138H18.8358V15.7638H20.3965V12.6138H23.5684V11.0508H20.3965Z" fill="white"/>
</svg>
