<svg width="25" height="25" viewBox="0 0 25 25" fill="none" xmlns="http://www.w3.org/2000/svg">
<path d="M3.71194 0H21.8654C23.5894 0 24.9999 1.26404 24.9999 3.10423V21.0827C24.9999 22.9229 23.5894 24.1869 21.8654 24.1869H3.71194C1.98744 24.1869 0.577148 22.9229 0.577148 21.0827V3.10423C0.577148 1.26404 1.98744 0 3.71194 0ZM18.3683 2.68727C17.7634 2.68727 17.2692 3.177 17.2692 3.77624V6.38255C17.2692 6.98155 17.7634 7.47152 18.3683 7.47152H21.1287C21.7335 7.47152 22.2283 6.98155 22.2283 6.38255V3.77624C22.2283 3.177 21.7335 2.68727 21.1287 2.68727H18.3683ZM22.2398 10.2286H20.0903C20.2936 10.8862 20.4037 11.5828 20.4037 12.3034C20.4037 16.3265 17.0044 19.5877 12.8119 19.5877C8.61961 19.5877 5.22077 16.3265 5.22077 12.3034C5.22077 11.5823 5.33061 10.8859 5.53423 10.2286H3.29115V20.4455C3.29115 20.9742 3.72798 21.407 4.26211 21.407H21.2693C21.8035 21.407 22.2403 20.9744 22.2403 20.4455V10.2286H22.2398ZM12.8116 7.33419C10.1029 7.33419 7.9067 9.44134 7.9067 12.0409C7.9067 14.6406 10.1029 16.7477 12.8116 16.7477C15.5206 16.7477 17.717 14.6406 17.717 12.0409C17.717 9.44134 15.5209 7.33419 12.8116 7.33419Z" fill="white"/>
</svg>
