<svg width="25" height="21" viewBox="0 0 25 21" fill="none" xmlns="http://www.w3.org/2000/svg">
<path d="M24.9103 3.33261C24.8752 3.29164 24.8173 3.27773 24.7679 3.30008C24.0359 3.62168 23.2658 3.85288 22.4726 3.98947C23.3147 3.36217 23.9421 2.49348 24.2638 1.49739C24.2794 1.44971 24.2633 1.39756 24.224 1.36652C24.1843 1.33548 24.1294 1.3315 24.086 1.35708C23.1377 1.9141 22.1105 2.30673 21.0318 2.52452C20.0758 1.54209 18.741 0.980103 17.3596 0.980103C14.55 0.980103 12.2646 3.24346 12.2646 6.0256C12.2646 6.3621 12.2974 6.69537 12.3626 7.01895C8.47129 6.78105 4.83272 4.93092 2.3587 1.92578C2.33337 1.89498 2.295 1.87785 2.25488 1.88182C2.21501 1.8848 2.1794 1.90715 2.15934 1.94117C1.70797 2.70804 1.46949 3.58542 1.46949 4.47795C1.46949 6.02485 2.17915 7.47118 3.38758 8.42554C2.76543 8.35154 2.15784 8.15759 1.60992 7.85635C1.57306 7.83574 1.52717 7.83599 1.49031 7.8571C1.45344 7.87796 1.43012 7.9167 1.42912 7.95892L1.42862 8.02348C1.42862 10.2451 2.90687 12.1958 5.01001 12.8435C4.45608 12.9319 3.88133 12.9259 3.31636 12.8192C3.27473 12.8115 3.2311 12.8256 3.20251 12.8574C3.17418 12.8892 3.16465 12.9336 3.17769 12.9739C3.80836 14.9233 5.56069 16.2904 7.60039 16.4608C5.89897 17.6953 3.88785 18.3457 1.76289 18.3457C1.37144 18.3457 0.977245 18.3226 0.59107 18.2776C0.535902 18.2714 0.481236 18.304 0.462178 18.3564C0.44312 18.4093 0.463432 18.4684 0.511077 18.4984C2.81057 19.9589 5.46941 20.7305 8.20047 20.7305C17.1339 20.7305 22.4721 13.5441 22.4721 6.59653C22.4721 6.40307 22.4684 6.21061 22.4606 6.01865C23.4243 5.32057 24.2515 4.46603 24.9186 3.4769C24.9484 3.4327 24.9452 3.37384 24.9103 3.33261Z" fill="white"/>
</svg>
